<?xml version="1.0" standalone="no"?>
<!DOCTYPE svg PUBLIC "-//W3C//DTD SVG 20010904//EN"
 "http://www.w3.org/TR/2001/REC-SVG-20010904/DTD/svg10.dtd">
<svg version="1.0" xmlns="http://www.w3.org/2000/svg"
 width="225.000000pt" height="225.000000pt" viewBox="0 0 225.000000 225.000000"
 preserveAspectRatio="xMidYMid meet">
<metadata>
Created by potrace 1.16, written by Peter Selinger 2001-2019
</metadata>
<g transform="translate(0.000000,225.000000) scale(0.100000,-0.100000)"
fill="#000000" stroke="none">
<path d="M975 2239 c-366 -46 -713 -302 -870 -642 -136 -294 -136 -650 0 -944
104 -224 308 -432 530 -538 375 -180 825 -140 1151 103 570 425 621 1235 108
1722 -248 236 -574 342 -919 299z m433 -598 c62 -28 127 -97 142 -150 5 -20
10 -65 10 -100 0 -81 -28 -142 -82 -181 l-39 -29 40 -21 c108 -55 151 -222 91
-356 -26 -61 -84 -120 -148 -151 l-57 -28 -317 -3 -318 -3 0 526 0 526 313 -3
c304 -3 313 -4 365 -27z"/>
<path d="M940 1375 l0 -115 161 0 c214 0 249 17 249 120 0 87 -60 110 -281
110 l-129 0 0 -115z"/>
<path d="M940 941 l0 -141 153 1 c179 1 222 11 254 58 25 37 31 112 12 154
-24 52 -59 62 -246 65 l-173 4 0 -141z"/>
</g>
</svg>
